<svg xmlns="http://www.w3.org/2000/svg" width="160" height="160.001" viewBox="0 0 160 160.001">
  <path id="前面オブジェクトで型抜き_8" data-name="前面オブジェクトで型抜き 8" d="M68.724,160H32.5A32.473,32.473,0,0,1,0,127.5v-95A32.473,32.473,0,0,1,32.5,0h95A32.473,32.473,0,0,1,160,32.5v95A32.474,32.474,0,0,1,127.5,160H91.275c.067-5.873,1.191-10.254,3.537-13.787,2.129-3.205,4.986-5.379,8.294-7.9.771-.586,1.412-1.075,2.067-1.588a54.839,54.839,0,0,0,6.251-5.534,26.373,26.373,0,0,0,4.685-6.818,36.505,36.505,0,0,0,2.923-9.84,87.619,87.619,0,0,0,.967-14.6V57.776a9.276,9.276,0,0,0-9.5-9.73,9.239,9.239,0,0,0-6.325,2.381,9.518,9.518,0,0,0-2.86,7.214V101.8a5.063,5.063,0,0,1-1.5,3.606,5.188,5.188,0,0,1-3.625,1.519H94.824a5.129,5.129,0,0,1-3.678-1.531,4.946,4.946,0,0,1-1.444-3.56V57.47c-.015-3.338-1.057-5.852-3.1-7.472A11.906,11.906,0,0,0,73.4,50c-2.034,1.62-3.065,4.134-3.065,7.472v44.365a5.042,5.042,0,0,1-1.5,3.6,5.109,5.109,0,0,1-3.625,1.489H63.843a5.109,5.109,0,0,1-3.629-1.494,5.172,5.172,0,0,1-1.529-3.632V57.64a9.515,9.515,0,0,0-2.861-7.214A9.234,9.234,0,0,0,49.5,48.046a9.275,9.275,0,0,0-9.5,9.73V99.934a87.6,87.6,0,0,0,.967,14.6,36.472,36.472,0,0,0,2.927,9.84,26.335,26.335,0,0,0,4.7,6.818,54.825,54.825,0,0,0,6.27,5.534c.75.587,1.473,1.141,2.081,1.6l0,0c3.291,2.515,6.133,4.687,8.252,7.889,2.339,3.533,3.46,7.91,3.526,13.775ZM16,120v24H40V120ZM120,16V40h24V16ZM16,16V40H40V16ZM34,138H22V126H34v12ZM138,34H126V22h12V34ZM34,34H22V22H34V34Z" fill="#f5c664"/>
</svg>
